<svg width="19" height="19" viewBox="0 0 19 19" fill="none" xmlns="http://www.w3.org/2000/svg">
<path d="M17.4462 1.771C16.4635 0.643837 15.0864 0.00249557 13.6436 0.000118026C12.1996 0.00190118 10.8211 0.642903 9.83685 1.77028L9.5014 2.14852L9.16595 1.77028C7.21288 -0.472715 3.92554 -0.601527 1.82355 1.48251C1.73041 1.5749 1.64045 1.67085 1.55387 1.77028C-0.517957 4.15487 -0.517957 7.84014 1.55387 10.2247L9.00842 18.6132C9.26633 18.9038 9.69612 18.9162 9.96838 18.641C9.9773 18.632 9.98597 18.6227 9.9944 18.6132L17.4463 10.2247C19.5179 7.84039 19.5179 4.15534 17.4462 1.771ZM16.4637 9.22697H16.463L9.5014 17.0619L2.53918 9.22697C0.956418 7.40492 0.956418 4.58936 2.53918 2.76732C3.97651 1.10499 6.40463 1.00077 7.96248 2.53449C8.03812 2.60896 8.11089 2.68661 8.18068 2.76732L9.00842 3.69915C9.28121 3.98836 9.72162 3.98836 9.9944 3.69915L10.8222 2.76804C12.2595 1.10572 14.6876 1.00149 16.2455 2.53521C16.3211 2.60968 16.3939 2.68733 16.4637 2.76804C18.0602 4.59297 18.0719 7.41367 16.4637 9.22697Z" fill="#BF1616"/>
</svg>
