<svg width="20" height="19" viewBox="0 0 20 19" fill="none" xmlns="http://www.w3.org/2000/svg">
<path d="M18.3644 1.78609C17.33 0.649321 15.8804 0.00251686 14.3617 0.000119071C12.8417 0.00191741 11.3906 0.648379 10.3546 1.78536L10.0015 2.16682L9.64836 1.78536C7.59251 -0.476742 4.13215 -0.60665 1.91953 1.49514C1.82148 1.58831 1.72679 1.68508 1.63565 1.78536C-0.545218 4.19026 -0.545218 7.90692 1.63565 10.3118L9.48255 18.7718C9.75403 19.0648 10.2064 19.0773 10.493 18.7998C10.5024 18.7907 10.5115 18.7814 10.5204 18.7718L18.3645 10.3118C20.5452 7.90717 20.5452 4.19073 18.3644 1.78609Z" fill="#BF1616"/>
</svg>
